<mxfile host="app.diagrams.net" agent="Mozilla/5.0 (Windows NT 10.0; Win64; x64) AppleWebKit/537.36 (KHTML, like Gecko) Chrome/126.0.0.0 Safari/537.36" version="24.7.6">
  <diagram name="Page-1" id="c7558073-3199-34d8-9f00-42111426c3f3">
    <mxGraphModel dx="1050" dy="522" grid="1" gridSize="10" guides="1" tooltips="1" connect="1" arrows="1" fold="1" page="1" pageScale="1" pageWidth="826" pageHeight="1169" background="none" math="0" shadow="0">
      <root>
        <mxCell id="0" />
        <mxCell id="1" parent="0" />
        <mxCell id="3" value="Condition" style="whiteSpace=wrap;align=center;verticalAlign=middle;fontStyle=1;strokeWidth=3;fillColor=#c1c1c2;strokeColor=#36393d;" parent="1" vertex="1">
          <mxGeometry x="231" y="261" width="90" height="60" as="geometry" />
        </mxCell>
        <mxCell id="5" value="Symptom" style="shape=process;whiteSpace=wrap;align=center;verticalAlign=middle;size=0;fontStyle=1;strokeWidth=3;fillColor=#007ab3;fontColor=#ffffff;strokeColor=#006EAF;" parent="1" vertex="1">
          <mxGeometry x="200.99999999999991" y="391" width="400" height="50" as="geometry" />
        </mxCell>
        <mxCell id="14" value="Document Reference" style="whiteSpace=wrap;align=center;verticalAlign=middle;fontStyle=1;strokeWidth=3;fillColor=#c1c1c2;strokeColor=#36393d;" parent="1" vertex="1">
          <mxGeometry x="109.99999999999997" y="519.9999999999999" width="90" height="60" as="geometry" />
        </mxCell>
        <mxCell id="15" value="Patient" style="whiteSpace=wrap;align=center;verticalAlign=middle;fontStyle=1;strokeWidth=3;fillColor=#c1c1c2;strokeColor=#36393d;" parent="1" vertex="1">
          <mxGeometry x="412.9999999999999" y="520" width="90" height="60" as="geometry" />
        </mxCell>
        <mxCell id="54" value="evidence.detail" style="text;spacingTop=-5;align=center" parent="1" vertex="1">
          <mxGeometry x="220" y="341" width="30" height="20" as="geometry" />
        </mxCell>
        <mxCell id="56" value="" style="edgeStyle=elbowEdgeStyle;elbow=horizontal;strokeColor=#0a0a0a;strokeWidth=2" parent="1" target="5" edge="1">
          <mxGeometry width="100" height="100" relative="1" as="geometry">
            <mxPoint x="280" y="326" as="sourcePoint" />
            <mxPoint x="150" y="400" as="targetPoint" />
            <Array as="points">
              <mxPoint x="280" y="360" />
            </Array>
          </mxGeometry>
        </mxCell>
        <mxCell id="94" value="derivedFrom" style="text;spacingTop=-5;align=center;fontStyle=0" parent="1" vertex="1">
          <mxGeometry x="183.99999999999994" y="470.0000000000001" width="30" height="20" as="geometry" />
        </mxCell>
        <mxCell id="NSOvL0PpMQYXhCNGWIY0-97" value="Service Request" style="whiteSpace=wrap;align=center;verticalAlign=middle;fontStyle=1;strokeWidth=3;fillColor=#c1c1c2;strokeColor=#36393d;" parent="1" vertex="1">
          <mxGeometry x="360" y="261" width="90" height="60" as="geometry" />
        </mxCell>
        <mxCell id="NSOvL0PpMQYXhCNGWIY0-99" value="" style="edgeStyle=elbowEdgeStyle;elbow=horizontal;strokeColor=#0a0a0a;strokeWidth=2" parent="1" edge="1">
          <mxGeometry width="100" height="100" relative="1" as="geometry">
            <mxPoint x="404.5" y="326" as="sourcePoint" />
            <mxPoint x="404.5" y="391" as="targetPoint" />
            <Array as="points">
              <mxPoint x="404.5" y="360" />
            </Array>
          </mxGeometry>
        </mxCell>
        <mxCell id="NSOvL0PpMQYXhCNGWIY0-100" value="reasonReference" style="text;spacingTop=-5;align=center" parent="1" vertex="1">
          <mxGeometry x="340" y="341" width="30" height="20" as="geometry" />
        </mxCell>
        <mxCell id="NSOvL0PpMQYXhCNGWIY0-101" value="" style="edgeStyle=elbowEdgeStyle;elbow=horizontal;strokeColor=#0a0a0a;strokeWidth=2;entryX=1;entryY=0.5;entryDx=0;entryDy=0;" parent="1" target="14" edge="1">
          <mxGeometry width="100" height="100" relative="1" as="geometry">
            <mxPoint x="238" y="441" as="sourcePoint" />
            <mxPoint x="238" y="506" as="targetPoint" />
            <Array as="points">
              <mxPoint x="238" y="475" />
            </Array>
          </mxGeometry>
        </mxCell>
        <mxCell id="NSOvL0PpMQYXhCNGWIY0-104" value="Questionnaire Response" style="whiteSpace=wrap;align=center;verticalAlign=middle;fontStyle=1;strokeWidth=3;fillColor=#c1c1c2;strokeColor=#36393d;" parent="1" vertex="1">
          <mxGeometry x="279" y="519.9999999999999" width="90" height="60" as="geometry" />
        </mxCell>
        <mxCell id="NSOvL0PpMQYXhCNGWIY0-105" value="" style="edgeStyle=elbowEdgeStyle;elbow=horizontal;strokeColor=#0a0a0a;strokeWidth=2;entryX=0;entryY=0.5;entryDx=0;entryDy=0;exitX=0.223;exitY=0.98;exitDx=0;exitDy=0;exitPerimeter=0;" parent="1" target="NSOvL0PpMQYXhCNGWIY0-104" edge="1">
          <mxGeometry width="100" height="100" relative="1" as="geometry">
            <mxPoint x="248.20000000000005" y="440" as="sourcePoint" />
            <mxPoint x="210" y="579" as="targetPoint" />
            <Array as="points">
              <mxPoint x="248" y="485" />
            </Array>
          </mxGeometry>
        </mxCell>
        <mxCell id="NSOvL0PpMQYXhCNGWIY0-109" value="Encounter" style="whiteSpace=wrap;align=center;verticalAlign=middle;fontStyle=1;strokeWidth=3;fillColor=#c1c1c2;strokeColor=#36393d;" parent="1" vertex="1">
          <mxGeometry x="529.9999999999999" y="520" width="90" height="60" as="geometry" />
        </mxCell>
        <mxCell id="NSOvL0PpMQYXhCNGWIY0-110" value="" style="edgeStyle=elbowEdgeStyle;elbow=horizontal;strokeColor=#0a0a0a;strokeWidth=2;entryX=0.5;entryY=0;entryDx=0;entryDy=0;" parent="1" target="15" edge="1">
          <mxGeometry width="100" height="100" relative="1" as="geometry">
            <mxPoint x="457.5" y="440" as="sourcePoint" />
            <mxPoint x="450" y="530" as="targetPoint" />
            <Array as="points">
              <mxPoint x="458" y="490" />
            </Array>
          </mxGeometry>
        </mxCell>
        <mxCell id="NSOvL0PpMQYXhCNGWIY0-112" value="" style="edgeStyle=elbowEdgeStyle;elbow=horizontal;strokeColor=#0a0a0a;strokeWidth=2;entryX=0.5;entryY=0;entryDx=0;entryDy=0;" parent="1" edge="1" target="NSOvL0PpMQYXhCNGWIY0-109">
          <mxGeometry width="100" height="100" relative="1" as="geometry">
            <mxPoint x="574.5" y="440" as="sourcePoint" />
            <mxPoint x="575" y="539" as="targetPoint" />
            <Array as="points">
              <mxPoint x="575" y="490" />
            </Array>
          </mxGeometry>
        </mxCell>
        <mxCell id="NSOvL0PpMQYXhCNGWIY0-114" value="subject" style="text;spacingTop=-5;align=center;fontStyle=0" parent="1" vertex="1">
          <mxGeometry x="420" y="470" width="30" height="20" as="geometry" />
        </mxCell>
        <mxCell id="NSOvL0PpMQYXhCNGWIY0-115" value="encounter" style="text;spacingTop=-5;align=center;fontStyle=0" parent="1" vertex="1">
          <mxGeometry x="530" y="470" width="30" height="20" as="geometry" />
        </mxCell>
        <mxCell id="EMXjjPLaQ27EqVKdUnpb-98" value="Medication Request" style="whiteSpace=wrap;align=center;verticalAlign=middle;fontStyle=1;strokeWidth=3;fillColor=#c1c1c2;strokeColor=#36393d;" parent="1" vertex="1">
          <mxGeometry x="490" y="261" width="90" height="60" as="geometry" />
        </mxCell>
        <mxCell id="EMXjjPLaQ27EqVKdUnpb-99" value="" style="edgeStyle=elbowEdgeStyle;elbow=horizontal;strokeColor=#0a0a0a;strokeWidth=2" parent="1" edge="1">
          <mxGeometry width="100" height="100" relative="1" as="geometry">
            <mxPoint x="534.5" y="326" as="sourcePoint" />
            <mxPoint x="534.5" y="391" as="targetPoint" />
            <Array as="points">
              <mxPoint x="534.5" y="360" />
            </Array>
          </mxGeometry>
        </mxCell>
        <mxCell id="EMXjjPLaQ27EqVKdUnpb-100" value="reasonReference" style="text;spacingTop=-5;align=center" parent="1" vertex="1">
          <mxGeometry x="470" y="341" width="30" height="20" as="geometry" />
        </mxCell>
      </root>
    </mxGraphModel>
  </diagram>
</mxfile>
